<?xml version="1.0" encoding="UTF-8"?>
<svg id="Layer_2" data-name="Layer 2" xmlns="http://www.w3.org/2000/svg" viewBox="0 0 540 138.74">
  <g id="Layer_1-2" data-name="Layer 1">
    <g>
      <path d="M526,10.56v81h14v22h-14v24h-24.5l-1.5-1.5v-22.5h-54v-25.5l51-77.5h29ZM500,91.56v-46l-24.56,39.94c-1.45,2.23-4.02,2.78-6,3.96-.91.54-1.97-.53-1.44,2.1h32Z"/>
      <path d="M275,112.06c18.67-14.73,46.3-33.94,48.03-59.96.53-7.92-.39-19.98-10.49-20.62-13.02-.83-13.32,13.46-13.55,23.09l-25.88-4.12c1.18-27.58,15.94-43.44,44.37-40.87,13.13,1.19,23.54,8.1,28.69,20.31,12.95,30.65-13.87,69.62-41.17,82.69-.43,1.01,2.33,1.99,2.49,1.99h42.5v23h-75v-25.5Z"/>
      <path d="M217.5,5.56c1.12,28.88,1.12,32.69.54,40.54s-1.8,15.18-4.03,22.46l17.99-29h30l-24.65,37.5,29.65,60.5h-25.5l-18.47-34.53c-1.8-2.03-5.03,4.65-5.03,5.03v29.47l-1.5.03h-23.5c-.27-.73-.27-131.27,0-132h24.5Z"/>
      <path d="M391,79.56v-20c10.19,1.83,17.07-4.27,17.07-14.5,0-20.68-25.19-16.43-23.07,2.51l-25.01-3c-.55-26.67,21.58-38.36,46.05-34.55,32.34,5.03,38.33,44.24,8.97,58.05,15.92,6.43,24.54,14.82,24.03,33.05-1.26,44.82-67.86,51.01-81.09,10.99-1.23-3.73-4.19-11.13.58-12.5,2.48-.71,20.7-4.32,21.82-3.94l1.48,1.57c.82,26.85,33.96,25.36,31.17-2.18-1.2-11.85-10.82-17.06-22-15.49Z"/>
      <path d="M180,137.56h-24v-67.5c0-.36-1.74-5.19-2.13-5.87-3.51-6.12-13.42-6.52-17.72-.98-1.24,1.59-4.15,9.12-4.15,10.85v63.5h-24V39.56h22c.23,2.06-.92,13.08,1.5,12.98,7.55-16.7,35.13-19.51,44.34-3.32,1.05,1.84,4.2,6.55,4.16,11.84v76.5Z"/>
      <polygon points="26 10.56 26 113.06 27.5 114.56 62 114.56 62 137.56 0 137.56 0 10.56 26 10.56"/>
      <rect x="70" y="39.56" width="24" height="98"/>
      <path d="M83.54.06c16.69,1.24,17.95,26.91,1.9,29.42C60.81,33.35,60.13-1.67,83.54.06Z"/>
    </g>
  </g>
</svg>